<svg viewBox="0 0 16 16"><g data-name="content"><path d="M-26.667-34h1v12h-1z"></path><g clip-path="url(#calendar-small-a)"><path d="M-1034.667-426h1367v772h-1367z"></path></g><path d="M-35.667-34h1v12h-1z"></path><g clip-path="url(#calendar-small-b)"><path d="M-1034.667-426h1367v772h-1367z"></path></g><path d="M-35.667-34h10v1h-10z"></path><g clip-path="url(#calendar-small-c)"><path d="M-1034.667-426h1367v772h-1367z"></path></g><path d="M-26.667-23h9v1h-9z"></path><g clip-path="url(#calendar-small-d)"><path d="M-1034.667-426h1367v772h-1367z"></path></g><path d="M-43.667-23h8.9v1h-8.9z"></path><g clip-path="url(#calendar-small-e)"><path d="M-1034.667-426h1367v772h-1367z"></path></g><path d="M-43.667-49h26v1h-26z"></path><g clip-path="url(#calendar-small-f)"><path d="M-1034.667-426h1367v772h-1367z"></path></g><path d="M-43.667-45h1v23h-1z"></path><g clip-path="url(#calendar-small-g)"><path d="M-1034.667-426h1367v772h-1367z"></path></g><path d="M-18.667-45h1v22h-1z"></path><g clip-path="url(#calendar-small-h)"><path d="M-1034.667-426h1367v772h-1367z"></path></g><path fill-rule="evenodd" d="M-30.667-58l-18 12.585v1.22l18-12.585 18 12.585v-1.22l-18-12.585z"></path><g clip-path="url(#calendar-small-i)"><path d="M-1034.667-426h1367v772h-1367z"></path></g><path d="M15 2v10.976q-.496.139-1 .258a26.048 26.048 0 0 1-6 .704 26.048 26.048 0 0 1-6-.704q-.504-.119-1-.258V2h2.5v1H2v9.205a24.956 24.956 0 0 0 6 .732 24.956 24.956 0 0 0 6-.732V3h-1.5V2zm-4.5 0h-5v1h5zM5 2.938V1H4v2.625h1zm7-.001V1h-1v2.625h1zm-8 4.25a.75.75 0 1 0 .75.75.75.75 0 0 0-.75-.75zm0 3a.75.75 0 1 0 .75.75.75.75 0 0 0-.75-.75zm4-2.75a.75.75 0 1 0 .75.75.75.75 0 0 0-.75-.75zm0 2.891a.75.75 0 1 0 .75.75.75.75 0 0 0-.75-.75zm3.75-2.891a.75.75 0 1 0 .75.75.75.75 0 0 0-.75-.75zm0 3a.75.75 0 1 0 .75.75.75.75 0 0 0-.75-.75zM13 5H3v1h10z"></path></g></svg>