<svg viewBox="0 0 16 16"><path d="M30 107h1v12h-1z"></path><g clip-path="url(#circle-plus-small-a)"><path d="M-978-285H389v772H-978z"></path></g><path d="M21 107h1v12h-1z"></path><g clip-path="url(#circle-plus-small-b)"><path d="M-978-285H389v772H-978z"></path></g><path d="M21 107h10v1H21z"></path><g clip-path="url(#circle-plus-small-c)"><path d="M-978-285H389v772H-978z"></path></g><path d="M30 118h9v1h-9z"></path><g clip-path="url(#circle-plus-small-d)"><path d="M-978-285H389v772H-978z"></path></g><path d="M13 118h8.9v1H13z"></path><g clip-path="url(#circle-plus-small-e)"><path d="M-978-285H389v772H-978z"></path></g><path d="M13 92h26v1H13z"></path><g clip-path="url(#circle-plus-small-f)"><path d="M-978-285H389v772H-978z"></path></g><path d="M13 96h1v23h-1z"></path><g clip-path="url(#circle-plus-small-g)"><path d="M-978-285H389v772H-978z"></path></g><path d="M38 96h1v22h-1z"></path><g clip-path="url(#circle-plus-small-h)"><path d="M-978-285H389v772H-978z"></path></g><path fill-rule="evenodd" d="M26 83L8 95.585v1.22L26 84.22l18 12.585v-1.22L26 83z"></path><g clip-path="url(#circle-plus-small-i)"><path d="M-978-285H389v772H-978z"></path></g><path d="M12 7.5v1H8.5V12h-1V8.5H4v-1h3.5V4h1v3.5H12z"></path><path d="M8 14a6 6 0 1 1 6-6 6.007 6.007 0 0 1-6 6m0 1a7 7 0 1 0-7-7 7 7 0 0 0 7 7z"></path><path fill="none" d="M16 16H0V0h16z"></path></svg>