<svg viewBox="0 0 16 16"><g data-name="content"><path d="M-26.667-34h1v12h-1z"></path><g clip-path="url(#more-small-a)"><path d="M-1034.667-426h1367v772h-1367z"></path></g><path d="M-35.667-34h1v12h-1z"></path><g clip-path="url(#more-small-b)"><path d="M-1034.667-426h1367v772h-1367z"></path></g><path d="M-35.667-34h10v1h-10z"></path><g clip-path="url(#more-small-c)"><path d="M-1034.667-426h1367v772h-1367z"></path></g><path d="M-26.667-23h9v1h-9z"></path><g clip-path="url(#more-small-d)"><path d="M-1034.667-426h1367v772h-1367z"></path></g><path d="M-43.667-23h8.9v1h-8.9z"></path><g clip-path="url(#more-small-e)"><path d="M-1034.667-426h1367v772h-1367z"></path></g><path d="M-43.667-49h26v1h-26z"></path><g clip-path="url(#more-small-f)"><path d="M-1034.667-426h1367v772h-1367z"></path></g><path d="M-43.667-45h1v23h-1z"></path><g clip-path="url(#more-small-g)"><path d="M-1034.667-426h1367v772h-1367z"></path></g><path d="M-18.667-45h1v22h-1z"></path><g clip-path="url(#more-small-h)"><path d="M-1034.667-426h1367v772h-1367z"></path></g><path fill-rule="evenodd" d="M-30.667-58l-18 12.585v1.22l18-12.585 18 12.585v-1.22l-18-12.585z"></path><g clip-path="url(#more-small-i)"><path d="M-1034.667-426h1367v772h-1367z"></path></g><path fill="none" d="M16 0v16H0V0z"></path><circle cx="13.5" cy="8" r="1.5"></circle><circle cx="8" cy="8" r="1.5"></circle><circle cx="2.5" cy="8" r="1.5"></circle></g></svg>